<svg id="Layer_1" data-name="Layer 1" xmlns="http://www.w3.org/2000/svg" xmlns:xlink="http://www.w3.org/1999/xlink" viewBox="0 0 116.78 115.43"><defs><style>.cls-1,.cls-2,.cls-3,.cls-4,.cls-5,.cls-6,.cls-7,.cls-8{fill-rule:evenodd;}.cls-1{fill:url(#GradientFill_4);}.cls-2{fill:url(#GradientFill_4-2);}.cls-3{fill:url(#GradientFill_4-3);}.cls-4{fill:url(#GradientFill_4-4);}.cls-5{fill:url(#GradientFill_4-5);}.cls-6{fill:url(#GradientFill_4-6);}.cls-7{fill:url(#GradientFill_4-7);}.cls-8{fill:url(#GradientFill_4-8);}.cls-9{fill:#069;}</style><linearGradient id="GradientFill_4" x1="20.5" y1="41.43" x2="82.62" y2="5.57" gradientUnits="userSpaceOnUse"><stop offset="0" stop-color="#0e223f"/><stop offset="1" stop-color="#0095da"/></linearGradient><linearGradient id="GradientFill_4-2" x1="90.17" y1="76.45" x2="29.94" y2="114.09" xlink:href="#GradientFill_4"/><linearGradient id="GradientFill_4-3" x1="6.1" y1="33.4" x2="42.56" y2="94.08" xlink:href="#GradientFill_4"/><linearGradient id="GradientFill_4-4" x1="68.81" y1="7.82" x2="118.82" y2="94.44" xlink:href="#GradientFill_4"/><linearGradient id="GradientFill_4-5" x1="50.03" y1="20.73" x2="110.31" y2="36.88" xlink:href="#GradientFill_4"/><linearGradient id="GradientFill_4-6" x1="62.2" y1="92.38" x2="1.34" y2="77.21" xlink:href="#GradientFill_4"/><linearGradient id="GradientFill_4-7" x1="45.07" y1="-22.04" x2="23.44" y2="64.69" xlink:href="#GradientFill_4"/><linearGradient id="GradientFill_4-8" x1="103.54" y1="20.72" x2="70.65" y2="143.47" xlink:href="#GradientFill_4"/></defs><title>logo</title><path class="cls-1" d="M82,19.48c-22-2.81-40.63,5.77-56.72,23C34,20.15,50.84,5,79.06,0l0,.19L64.17,11.32,82,19.39v.09Zm-5.14-14A4.61,4.61,0,1,0,83.19,7,4.61,4.61,0,0,0,76.85,5.44Z"/><path class="cls-2" d="M36.14,96c22,2.81,40.63-5.77,56.72-23-8.76,22.34-25.57,37.51-53.79,42.49l0-.19L54,104.11,36.16,96V96Zm5.14,14a4.61,4.61,0,1,0-6.34-1.53A4.61,4.61,0,0,0,41.29,110Z"/><path class="cls-3" d="M20.83,34.79c-2.81,22,5.77,40.63,23,56.72C21.5,82.75,6.33,65.94,1.35,37.72l.19,0L12.67,52.62l8.07-17.81Zm-14,5.15A4.61,4.61,0,1,0,8.32,33.6,4.61,4.61,0,0,0,6.79,39.94Z"/><path class="cls-4" d="M97.31,80.64c2.81-22-5.77-40.63-23-56.72,22.34,8.77,37.51,25.57,42.49,53.79l-.19,0L105.46,62.82,97.39,80.63Zm14-5.14a4.61,4.61,0,1,0-1.53,6.34A4.61,4.61,0,0,0,111.35,75.5Z"/><path class="cls-5" d="M102.32,46.89C88.75,29.35,69.51,22.24,45.94,23.05c22-9.6,44.6-8.44,68.08,8l-.11.15L95.48,28.52l6.89,18.3-.05.07Zm6.29-13.57a4.61,4.61,0,1,0,3.4,5.57A4.61,4.61,0,0,0,108.61,33.32Z"/><path class="cls-6" d="M15.82,68.55C29.38,86.08,48.63,93.19,72.2,92.38c-22,9.6-44.6,8.44-68.08-8l.11-.15,18.43,2.68-6.89-18.3.05-.07ZM9.53,82.11a4.61,4.61,0,1,0-3.4-5.57A4.61,4.61,0,0,0,9.53,82.11Z"/><path class="cls-7" d="M48.24,14.47C30.7,28,23.59,47.28,24.4,70.85c-9.6-22-8.44-44.6,8-68.08l.15.11L29.87,21.31l18.3-6.89.07.05ZM34.67,8.18a4.61,4.61,0,1,0,5.57-3.4A4.61,4.61,0,0,0,34.67,8.18Z"/><path class="cls-8" d="M69.9,101C87.43,87.4,94.54,68.16,93.73,44.59c9.6,22,8.44,44.6-8,68.08l-.16-.11,2.68-18.43L70,101,69.9,101Zm13.57,6.29a4.61,4.61,0,1,0-5.57,3.4A4.61,4.61,0,0,0,83.46,107.26Z"/><path class="cls-9" d="M40.78,62.21h3v3H33.28V51.71h3v12h4.49Z"/><path class="cls-9" d="M45.28,51.71h9v1.5h-6v10.5h6v-12h3v13.5h-12Z"/><path class="cls-9" d="M67.79,53.21h-6v10.5h6v-4.5h-3v-1.5h6v7.5h-12V51.71h12v3h-3Z"/><path class="cls-9" d="M72.29,51.71h9v1.5h-6v10.5h6v-12h3v13.5h-12Z"/></svg>