<svg width="14" height="14" viewBox="0 0 14 14" fill="none" xmlns="http://www.w3.org/2000/svg">
<path d="M4.20004 0.333344H9.80004C11.9334 0.333344 13.6667 2.06668 13.6667 4.20001V9.80001C13.6667 10.8255 13.2593 11.809 12.5342 12.5342C11.809 13.2593 10.8255 13.6667 9.80004 13.6667H4.20004C2.06671 13.6667 0.333374 11.9333 0.333374 9.80001V4.20001C0.333374 3.17451 0.740754 2.191 1.46589 1.46586C2.19104 0.740723 3.17454 0.333344 4.20004 0.333344ZM4.06671 1.66668C3.43019 1.66668 2.81974 1.91953 2.36965 2.36962C1.91956 2.81971 1.66671 3.43016 1.66671 4.06668V9.93334C1.66671 11.26 2.74004 12.3333 4.06671 12.3333H9.93337C10.5699 12.3333 11.1803 12.0805 11.6304 11.6304C12.0805 11.1803 12.3334 10.5699 12.3334 9.93334V4.06668C12.3334 2.74001 11.26 1.66668 9.93337 1.66668H4.06671ZM10.5 2.66668C10.7211 2.66668 10.933 2.75447 11.0893 2.91075C11.2456 3.06704 11.3334 3.279 11.3334 3.50001C11.3334 3.72102 11.2456 3.93299 11.0893 4.08927C10.933 4.24555 10.7211 4.33334 10.5 4.33334C10.279 4.33334 10.0671 4.24555 9.91078 4.08927C9.7545 3.93299 9.66671 3.72102 9.66671 3.50001C9.66671 3.279 9.7545 3.06704 9.91078 2.91075C10.0671 2.75447 10.279 2.66668 10.5 2.66668ZM7.00004 3.66668C7.8841 3.66668 8.73194 4.01787 9.35706 4.64299C9.98218 5.26811 10.3334 6.11596 10.3334 7.00001C10.3334 7.88407 9.98218 8.73191 9.35706 9.35703C8.73194 9.98215 7.8841 10.3333 7.00004 10.3333C6.11599 10.3333 5.26814 9.98215 4.64302 9.35703C4.0179 8.73191 3.66671 7.88407 3.66671 7.00001C3.66671 6.11596 4.0179 5.26811 4.64302 4.64299C5.26814 4.01787 6.11599 3.66668 7.00004 3.66668ZM7.00004 5.00001C6.46961 5.00001 5.9609 5.21072 5.58583 5.5858C5.21075 5.96087 5.00004 6.46958 5.00004 7.00001C5.00004 7.53044 5.21075 8.03915 5.58583 8.41422C5.9609 8.7893 6.46961 9.00001 7.00004 9.00001C7.53047 9.00001 8.03918 8.7893 8.41426 8.41422C8.78933 8.03915 9.00004 7.53044 9.00004 7.00001C9.00004 6.46958 8.78933 5.96087 8.41426 5.5858C8.03918 5.21072 7.53047 5.00001 7.00004 5.00001Z" fill="#3AA037"/>
</svg>
